<?xml version="1.0" encoding="utf-8"?>
<!-- Generator: Adobe Illustrator 21.1.0, SVG Export Plug-In . SVG Version: 6.00 Build 0)  -->
<svg version="1.1" id="Layer_1" xmlns="http://www.w3.org/2000/svg" xmlns:xlink="http://www.w3.org/1999/xlink" x="0px" y="0px"
	 viewBox="0 0 50 50" style="enable-background:new 0 0 50 50;" xml:space="preserve">
<style type="text/css">
	.st0{fill:#56CAF0;}
</style>
<g id="Back_Arrow_2">
	<path class="st0" d="M14.4,26.9l7.5,7.5c0.9,0.9,2.6,0.2,2.6-1.2v-3.8c0-1,0.8-1.8,1.8-1.8h6.9c1.4,0,2.6-1.2,2.6-2.6l0,0
		c0-1.4-1.2-2.6-2.6-2.6h-6.9c-1,0-1.8-0.8-1.8-1.8v-3.8c0-1.4-1.6-2.1-2.6-1.2l-7.5,7.5C13.5,24.5,13.5,25.9,14.4,26.9z"/>
	<path class="st0" d="M25,50c13.9,0,25-11.1,25-25S38.9,0,25,0S0,11.1,0,25C-0.3,38.9,11.1,50,25,50z M25,5.2
		c10.8,0,19.8,8.8,19.8,19.8c0,10.8-8.8,19.8-19.8,19.8C14.2,44.8,5.2,36.1,5.2,25C5.2,14.2,13.9,5.2,25,5.2z"/>
</g>
</svg>
