<?xml version="1.0" encoding="utf-8"?>
<!-- Generator: Adobe Illustrator 21.1.0, SVG Export Plug-In . SVG Version: 6.00 Build 0)  -->
<svg version="1.1" id="Layer_1" xmlns="http://www.w3.org/2000/svg" xmlns:xlink="http://www.w3.org/1999/xlink" x="0px" y="0px"
	 viewBox="0 0 50 50" style="enable-background:new 0 0 50 50;" xml:space="preserve">
<style type="text/css">
	.st0{fill:#FFFFFF;}
</style>
<g id="Forward_Arrow_2">
	<path class="st0" d="M34.8,23.1l-7.5-7.5c-0.9-0.9-2.6-0.2-2.6,1.2v3.8c0,1-0.8,1.8-1.8,1.8h-6.9c-1.4,0-2.6,1.2-2.6,2.6l0,0
		c0,1.4,1.2,2.6,2.6,2.6h6.9c1,0,1.8,0.8,1.8,1.8v3.8c0,1.4,1.6,2.1,2.6,1.2l7.5-7.5C35.8,25.5,35.8,24.1,34.8,23.1z"/>
	<path class="st0" d="M25,0C11.1,0,0,11.1,0,25s11.1,25,25,25c13.9,0,25-11.1,25-25C50,11.1,38.7,0,25,0z M25,44.8
		C14.2,44.8,5.2,36.1,5.2,25C5.2,14.2,13.9,5.2,25,5.2c10.8,0,19.8,8.8,19.8,19.8C44.6,35.8,35.8,44.8,25,44.8z"/>
</g>
</svg>
